<svg xmlns="http://www.w3.org/2000/svg" xmlns:xlink="http://www.w3.org/1999/xlink" width="500" zoomAndPan="magnify" viewBox="0 0 375 374.999991" height="500" preserveAspectRatio="xMidYMid meet" version="1.0"><defs><clipPath id="9f52395801"><path d="M 3.058594 4.230469 L 372 4.230469 L 372 369.191406 L 3.058594 369.191406 Z M 3.058594 4.230469 " clip-rule="nonzero"/></clipPath><clipPath id="611acf05f3"><path d="M 185.539062 4.230469 L 189.460938 4.230469 C 290.242188 4.230469 371.941406 85.929688 371.941406 186.710938 C 371.941406 287.492188 290.242188 369.191406 189.460938 369.191406 L 185.539062 369.191406 C 84.757812 369.191406 3.058594 287.492188 3.058594 186.710938 C 3.058594 85.929688 84.757812 4.230469 185.539062 4.230469 Z M 185.539062 4.230469 " clip-rule="nonzero"/></clipPath><clipPath id="9bfed846da"><path d="M 15.40625 373 L 20 373 L 20 375 L 15.40625 375 Z M 15.40625 373 " clip-rule="nonzero"/></clipPath><clipPath id="1269979e5a"><path d="M 197 143 L 297.40625 143 L 297.40625 249 L 197 249 Z M 197 143 " clip-rule="nonzero"/></clipPath><clipPath id="20d89f5377"><path d="M 205 13.066406 L 234 13.066406 L 234 95 L 205 95 Z M 205 13.066406 " clip-rule="nonzero"/></clipPath></defs><g clip-path="url(#9f52395801)"><g clip-path="url(#611acf05f3)"><path fill="#effddd" d="M 3.058594 4.230469 L 372.296875 4.230469 L 372.296875 369.191406 L 3.058594 369.191406 Z M 3.058594 4.230469 " fill-opacity="1" fill-rule="nonzero"/></g></g><path fill="#475551" d="M 186.085938 182.765625 C 187.421875 181.476562 188.757812 180.214844 190.09375 178.980469 C 189.976562 178.816406 189.855469 178.652344 189.738281 178.484375 C 188.523438 179.519531 187.160156 180.722656 185.640625 182.117188 C 185.65625 182.136719 185.671875 182.160156 185.683594 182.179688 L 186.085938 182.765625 " fill-opacity="1" fill-rule="nonzero"/><path fill="#475551" d="M 189.101562 180.671875 C 188.929688 180.441406 188.753906 180.214844 188.578125 179.984375 C 187.3125 180.855469 186.636719 181.265625 186.636719 181.265625 C 187.433594 181.105469 188.257812 180.90625 189.101562 180.671875 " fill-opacity="1" fill-rule="nonzero"/><g clip-path="url(#9bfed846da)"><path fill="#475551" d="M 17.867188 373.871094 C 17.09375 375.746094 16.3125 377.644531 15.527344 379.566406 C 16.15625 379.625 16.785156 379.679688 17.414062 379.730469 C 18.171875 377.820312 18.9375 375.90625 19.710938 373.988281 C 19.097656 373.953125 18.480469 373.910156 17.867188 373.871094 " fill-opacity="1" fill-rule="nonzero"/></g><g clip-path="url(#1269979e5a)"><path fill="#475551" d="M 297.292969 208.574219 L 297.328125 208.261719 L 297.402344 207.632812 C 297.425781 207.421875 297.457031 207.210938 297.472656 207.003906 L 297.515625 206.375 L 297.558594 205.75 C 297.570312 205.539062 297.589844 205.328125 297.585938 205.121094 L 297.601562 203.867188 C 297.605469 203.765625 297.605469 203.660156 297.605469 203.554688 L 297.59375 203.246094 L 297.570312 202.621094 C 297.550781 202.210938 297.542969 201.792969 297.5 201.386719 L 297.390625 200.15625 C 297.375 199.949219 297.34375 199.75 297.316406 199.546875 L 297.234375 198.9375 C 297.132812 198.121094 296.972656 197.328125 296.828125 196.527344 L 296.769531 196.230469 L 296.703125 195.933594 L 296.566406 195.34375 C 296.476562 194.953125 296.390625 194.558594 296.289062 194.167969 L 295.96875 193.011719 L 295.8125 192.433594 C 295.753906 192.242188 295.691406 192.050781 295.632812 191.863281 C 295.390625 191.105469 295.160156 190.339844 294.878906 189.601562 L 294.476562 188.488281 C 294.339844 188.117188 294.1875 187.753906 294.042969 187.390625 C 292.871094 184.472656 291.5 181.683594 290.007812 178.992188 L 289.445312 177.984375 L 289.304688 177.734375 L 289.15625 177.488281 L 288.863281 176.992188 L 288.277344 176.003906 L 287.984375 175.511719 L 287.679688 175.027344 C 287.273438 174.382812 286.871094 173.734375 286.457031 173.097656 C 286.039062 172.464844 285.617188 171.832031 285.199219 171.203125 C 283.492188 168.699219 281.710938 166.261719 279.871094 163.894531 C 279.414062 163.304688 278.941406 162.726562 278.476562 162.140625 L 277.78125 161.261719 L 277.066406 160.398438 C 276.589844 159.828125 276.113281 159.253906 275.640625 158.679688 C 275.15625 158.117188 274.671875 157.554688 274.1875 156.988281 L 273.460938 156.144531 L 272.722656 155.316406 C 272.230469 154.761719 271.738281 154.207031 271.25 153.65625 C 270.753906 153.105469 270.25 152.566406 269.753906 152.023438 L 269.003906 151.207031 L 268.628906 150.800781 L 268.246094 150.398438 C 265.957031 147.960938 263.625 145.582031 261.265625 143.25 C 260.308594 145.199219 259.335938 147.160156 258.351562 149.136719 C 258.992188 149.800781 259.636719 150.472656 260.273438 151.152344 L 261.105469 152.03125 L 261.523438 152.472656 L 261.933594 152.917969 C 262.480469 153.515625 263.027344 154.109375 263.578125 154.703125 L 263.988281 155.148438 L 264.390625 155.601562 L 265.203125 156.507812 C 265.738281 157.113281 266.289062 157.714844 266.8125 158.332031 C 271.074219 163.21875 275.15625 168.296875 278.800781 173.65625 C 280.628906 176.335938 282.347656 179.082031 283.898438 181.90625 C 285.449219 184.726562 286.835938 187.625 287.964844 190.589844 C 288.042969 190.773438 288.105469 190.960938 288.167969 191.148438 L 288.566406 192.265625 L 288.664062 192.542969 L 288.753906 192.824219 C 288.984375 193.578125 289.234375 194.324219 289.421875 195.082031 L 289.574219 195.648438 C 289.625 195.835938 289.679688 196.023438 289.714844 196.214844 L 289.96875 197.351562 L 290.035156 197.636719 L 290.085938 197.921875 L 290.183594 198.492188 L 290.289062 199.0625 L 290.3125 199.207031 L 290.332031 199.347656 L 290.367188 199.632812 L 290.519531 200.773438 L 290.636719 202.199219 C 290.644531 202.292969 290.644531 202.386719 290.648438 202.480469 L 290.667969 203.046875 L 290.6875 203.617188 C 290.6875 203.804688 290.679688 203.992188 290.679688 204.179688 L 290.667969 204.742188 L 290.664062 205.027344 C 290.664062 205.121094 290.652344 205.214844 290.648438 205.308594 L 290.570312 206.425781 L 290.429688 207.535156 C 290.414062 207.71875 290.375 207.902344 290.34375 208.082031 L 290.242188 208.628906 C 289.679688 211.535156 288.578125 214.308594 286.929688 216.808594 C 286.109375 218.0625 285.167969 219.253906 284.128906 220.378906 C 283.867188 220.65625 283.613281 220.945312 283.332031 221.210938 L 282.917969 221.613281 C 282.78125 221.75 282.644531 221.886719 282.496094 222.015625 L 281.636719 222.800781 L 280.734375 223.550781 C 279.511719 224.539062 278.21875 225.464844 276.875 226.335938 L 275.855469 226.976562 C 275.511719 227.183594 275.160156 227.382812 274.8125 227.585938 C 274.464844 227.796875 274.105469 227.988281 273.75 228.179688 C 273.394531 228.378906 273.042969 228.574219 272.675781 228.757812 C 271.238281 229.519531 269.742188 230.207031 268.230469 230.867188 C 266.71875 231.53125 265.167969 232.125 263.601562 232.699219 C 260.878906 233.6875 258.105469 234.554688 255.296875 235.328125 C 252.488281 236.097656 249.648438 236.773438 246.792969 237.375 C 241.074219 238.578125 235.296875 239.480469 229.503906 240.183594 C 220.515625 241.273438 211.503906 241.898438 202.53125 242.210938 C 200.84375 244.4375 199.148438 246.617188 197.445312 248.75 C 198.222656 248.742188 199 248.734375 199.777344 248.722656 C 203.09375 248.675781 206.417969 248.585938 209.757812 248.445312 C 213.09375 248.304688 216.441406 248.117188 219.796875 247.867188 C 223.152344 247.621094 226.515625 247.316406 229.886719 246.941406 C 233.257812 246.5625 236.636719 246.125 240.015625 245.589844 C 243.394531 245.050781 246.777344 244.4375 250.152344 243.699219 L 251.421875 243.421875 L 252.683594 243.125 L 253.320312 242.980469 L 253.949219 242.824219 L 255.214844 242.511719 L 256.476562 242.179688 L 257.109375 242.015625 L 257.738281 241.839844 L 259 241.488281 L 260.257812 241.117188 L 260.890625 240.929688 L 261.515625 240.734375 L 262.769531 240.339844 L 264.023438 239.921875 C 264.230469 239.855469 264.441406 239.789062 264.648438 239.714844 L 265.273438 239.492188 C 266.9375 238.914062 268.59375 238.273438 270.238281 237.589844 C 273.523438 236.210938 276.765625 234.621094 279.875 232.695312 C 280.261719 232.453125 280.652344 232.214844 281.035156 231.960938 L 282.183594 231.191406 C 282.9375 230.65625 283.691406 230.121094 284.421875 229.539062 C 285.886719 228.394531 287.300781 227.148438 288.628906 225.789062 C 289.949219 224.417969 291.183594 222.9375 292.28125 221.339844 C 293.382812 219.742188 294.34375 218.027344 295.132812 216.226562 C 295.296875 215.832031 295.460938 215.441406 295.621094 215.042969 L 296.050781 213.835938 C 296.085938 213.738281 296.121094 213.640625 296.152344 213.535156 L 296.246094 213.230469 L 296.425781 212.617188 L 296.601562 212.003906 L 296.75 211.382812 L 296.894531 210.761719 C 296.941406 210.554688 296.992188 210.347656 297.023438 210.140625 L 297.242188 208.890625 C 297.265625 208.785156 297.28125 208.679688 297.292969 208.574219 " fill-opacity="1" fill-rule="nonzero"/></g><g clip-path="url(#20d89f5377)"><path fill="#475551" d="M 221.285156 90.753906 C 218.519531 86.175781 216.011719 81.492188 213.890625 76.6875 C 212.828125 74.289062 211.863281 71.859375 211.023438 69.402344 C 210.179688 66.945312 209.457031 64.460938 208.898438 61.957031 C 207.773438 56.949219 207.28125 51.84375 207.710938 46.839844 C 207.929688 44.34375 208.394531 41.878906 209.097656 39.496094 C 209.808594 37.109375 210.765625 34.804688 211.945312 32.628906 C 213.128906 30.449219 214.542969 28.398438 216.128906 26.496094 C 217.714844 24.59375 219.476562 22.835938 221.355469 21.222656 C 223.234375 19.609375 225.226562 18.136719 227.289062 16.78125 C 227.8125 16.445312 228.328125 16.113281 228.851562 15.78125 C 229.378906 15.46875 229.910156 15.152344 230.441406 14.839844 C 230.96875 14.515625 231.511719 14.230469 232.050781 13.933594 C 232.597656 13.640625 233.128906 13.335938 233.679688 13.066406 C 231.21875 14.183594 228.789062 15.421875 226.433594 16.828125 C 224.082031 18.230469 221.808594 19.8125 219.664062 21.585938 C 219.132812 22.035156 218.613281 22.5 218.085938 22.957031 C 217.574219 23.433594 217.070312 23.917969 216.5625 24.402344 C 216.316406 24.652344 216.078125 24.90625 215.832031 25.160156 L 215.46875 25.542969 C 215.34375 25.667969 215.222656 25.792969 215.109375 25.929688 C 214.875 26.191406 214.644531 26.457031 214.410156 26.722656 L 214.0625 27.125 C 213.941406 27.253906 213.839844 27.398438 213.730469 27.535156 C 211.941406 29.722656 210.375 32.128906 209.097656 34.703125 C 207.824219 37.285156 206.867188 40.039062 206.203125 42.882812 C 206.15625 43.0625 206.125 43.242188 206.089844 43.417969 L 205.980469 43.957031 L 205.871094 44.492188 L 205.820312 44.765625 L 205.777344 45.035156 C 205.667969 45.757812 205.535156 46.480469 205.46875 47.210938 C 205.429688 47.578125 205.382812 47.941406 205.347656 48.308594 C 205.320312 48.675781 205.292969 49.042969 205.265625 49.410156 L 205.226562 49.960938 C 205.214844 50.144531 205.210938 50.328125 205.207031 50.511719 C 205.195312 50.882812 205.183594 51.25 205.171875 51.621094 C 205.117188 54.570312 205.351562 57.539062 205.789062 60.488281 C 205.832031 60.855469 205.902344 61.222656 205.964844 61.589844 C 206.027344 61.957031 206.089844 62.324219 206.15625 62.691406 C 206.226562 63.058594 206.300781 63.425781 206.375 63.792969 C 206.449219 64.15625 206.515625 64.527344 206.605469 64.886719 C 206.777344 65.613281 206.933594 66.347656 207.125 67.070312 C 207.21875 67.4375 207.3125 67.796875 207.40625 68.160156 C 207.507812 68.523438 207.609375 68.882812 207.710938 69.246094 C 209.355469 75.023438 211.660156 80.644531 214.34375 86.113281 C 215.734375 88.945312 217.234375 91.730469 218.820312 94.480469 C 219.722656 93.367188 220.628906 92.261719 221.539062 91.167969 C 221.453125 91.03125 221.367188 90.890625 221.285156 90.753906 " fill-opacity="1" fill-rule="nonzero"/></g><path fill="#475551" d="M 129.464844 244.121094 C 128.753906 244.171875 128.042969 244.238281 127.328125 244.296875 C 124.484375 244.550781 121.648438 244.894531 118.832031 245.339844 C 116.011719 245.792969 113.210938 246.351562 110.441406 247.050781 C 109.746094 247.21875 109.058594 247.417969 108.371094 247.609375 L 107.855469 247.75 L 107.339844 247.90625 L 106.3125 248.21875 C 105.972656 248.320312 105.632812 248.441406 105.292969 248.550781 L 104.277344 248.894531 L 103.265625 249.261719 C 102.929688 249.382812 102.589844 249.503906 102.257812 249.644531 L 101.257812 250.039062 C 100.925781 250.171875 100.597656 250.320312 100.269531 250.460938 L 99.773438 250.675781 L 99.527344 250.78125 L 99.28125 250.898438 L 98.304688 251.355469 C 97.011719 251.988281 95.730469 252.652344 94.496094 253.40625 L 94.03125 253.679688 C 93.878906 253.777344 93.726562 253.875 93.574219 253.976562 C 93.269531 254.171875 92.964844 254.363281 92.664062 254.566406 L 91.769531 255.1875 L 91.546875 255.339844 L 91.328125 255.503906 L 90.894531 255.832031 C 89.738281 256.707031 88.621094 257.644531 87.582031 258.667969 C 86.539062 259.6875 85.558594 260.769531 84.660156 261.917969 C 83.761719 263.066406 82.953125 264.285156 82.238281 265.546875 C 80.800781 268.074219 79.746094 270.800781 79.09375 273.574219 C 78.4375 276.355469 78.136719 279.175781 78.132812 281.957031 C 78.125 284.742188 78.378906 287.488281 78.832031 290.175781 C 79.734375 295.550781 81.351562 300.679688 83.308594 305.574219 C 85.273438 310.476562 87.59375 315.15625 90.117188 319.652344 C 92.640625 324.15625 95.371094 328.472656 98.238281 332.636719 C 101.113281 336.800781 104.113281 340.8125 107.265625 344.644531 C 104.027344 340.25 100.972656 335.65625 98.078125 330.902344 C 95.191406 326.144531 92.476562 321.210938 90.042969 316.089844 C 87.621094 310.96875 85.464844 305.65625 83.851562 300.140625 C 83.050781 297.382812 82.375 294.578125 81.917969 291.734375 C 81.457031 288.890625 81.199219 286.011719 81.238281 283.136719 C 81.277344 280.265625 81.613281 277.402344 82.355469 274.644531 C 83.089844 271.890625 84.234375 269.257812 85.78125 266.875 C 87.324219 264.488281 89.277344 262.367188 91.5 260.542969 C 92.613281 259.632812 93.792969 258.792969 95.019531 258.019531 C 96.257812 257.253906 97.542969 256.554688 98.863281 255.914062 L 99.859375 255.445312 C 100.195312 255.296875 100.535156 255.152344 100.875 255.003906 C 101.042969 254.933594 101.210938 254.855469 101.382812 254.789062 L 101.898438 254.582031 L 102.414062 254.378906 C 102.585938 254.308594 102.757812 254.238281 102.933594 254.179688 L 103.980469 253.796875 C 104.15625 253.734375 104.332031 253.675781 104.507812 253.617188 L 105.039062 253.441406 C 105.742188 253.195312 106.460938 252.992188 107.179688 252.773438 C 110.050781 251.9375 113.007812 251.292969 116.003906 250.78125 C 119 250.269531 122.042969 249.902344 125.113281 249.648438 C 126.46875 249.535156 127.832031 249.445312 129.199219 249.371094 C 129.316406 247.636719 129.464844 245.882812 129.632812 244.109375 C 129.578125 244.113281 129.523438 244.117188 129.464844 244.121094 " fill-opacity="1" fill-rule="nonzero"/><path fill="#475551" d="M 240.4375 174.203125 C 240.4375 174.203125 219.890625 189.625 198.960938 176.53125 C 198.960938 176.53125 223.925781 176.746094 240.4375 174.203125 Z M 221.027344 206.820312 C 220.546875 207.089844 219.847656 207.464844 218.957031 207.910156 C 218.070312 208.355469 216.992188 208.867188 215.761719 209.402344 C 215.453125 209.53125 215.136719 209.667969 214.8125 209.808594 C 214.492188 209.945312 214.160156 210.085938 213.820312 210.226562 C 213.140625 210.511719 212.429688 210.792969 211.6875 211.070312 C 210.199219 211.625 208.59375 212.15625 206.90625 212.625 C 206.695312 212.679688 206.480469 212.738281 206.265625 212.796875 C 206.054688 212.851562 205.84375 212.90625 205.628906 212.964844 C 205.199219 213.074219 204.769531 213.179688 204.335938 213.28125 C 203.460938 213.480469 202.570312 213.660156 201.667969 213.804688 C 199.867188 214.097656 198.015625 214.273438 196.152344 214.277344 C 194.289062 214.28125 192.414062 214.109375 190.582031 213.714844 C 190.90625 213.625 191.230469 213.527344 191.558594 213.4375 L 192.539062 213.167969 L 194.503906 212.640625 C 195.8125 212.289062 197.113281 211.941406 198.414062 211.601562 C 199.71875 211.265625 201.011719 210.925781 202.3125 210.601562 C 203.621094 210.285156 204.925781 209.976562 206.226562 209.671875 C 207.527344 209.363281 208.824219 209.066406 210.117188 208.773438 L 212.058594 208.339844 C 212.382812 208.265625 212.707031 208.199219 213.035156 208.132812 L 214.007812 207.929688 C 216.609375 207.394531 219.195312 206.882812 221.761719 206.398438 C 221.761719 206.398438 221.503906 206.554688 221.027344 206.820312 Z M 119.507812 335.902344 C 119.105469 336.605469 118.214844 337.015625 117.332031 336.910156 C 115.875 336.730469 115.070312 335.367188 115.738281 334.207031 C 116.144531 333.507812 117.035156 333.097656 117.917969 333.203125 C 119.375 333.382812 120.179688 334.746094 119.507812 335.902344 Z M 293.96875 88.75 C 293.921875 88.558594 293.820312 88.367188 293.664062 88.191406 C 293.503906 88.019531 293.292969 87.863281 293.03125 87.746094 C 291.46875 87.042969 289.84375 86.433594 288.179688 85.910156 L 287.863281 85.808594 C 287.757812 85.777344 287.644531 85.75 287.535156 85.71875 L 286.878906 85.535156 L 286.214844 85.351562 C 286.101562 85.324219 285.992188 85.296875 285.886719 85.265625 L 285.5625 85.1875 C 285.128906 85.078125 284.691406 84.972656 284.253906 84.871094 C 283.820312 84.769531 283.390625 84.679688 282.957031 84.585938 C 279.503906 83.863281 276.082031 83.429688 272.683594 83.234375 C 269.289062 83.042969 265.917969 83.085938 262.582031 83.328125 C 261.753906 83.390625 260.914062 83.460938 260.082031 83.542969 C 259.265625 83.636719 258.441406 83.734375 257.613281 83.839844 C 256.777344 83.941406 255.976562 84.078125 255.160156 84.207031 L 253.933594 84.414062 L 253.324219 84.519531 L 252.722656 84.636719 C 252.722656 84.636719 252.375 84.691406 251.71875 84.839844 C 251.390625 84.910156 250.988281 85.007812 250.507812 85.132812 C 250.273438 85.195312 250.015625 85.265625 249.738281 85.34375 C 249.472656 85.425781 249.1875 85.515625 248.886719 85.613281 C 247.6875 86.011719 246.195312 86.53125 244.574219 87.285156 C 244.164062 87.472656 243.738281 87.667969 243.308594 87.875 C 243.085938 87.980469 242.867188 88.089844 242.644531 88.199219 C 242.425781 88.316406 242.207031 88.433594 241.984375 88.550781 C 241.089844 89.03125 240.15625 89.566406 239.179688 90.152344 C 238.234375 90.753906 237.253906 91.414062 236.25 92.132812 C 235.738281 92.484375 235.253906 92.871094 234.75 93.269531 C 234.25 93.664062 233.746094 94.078125 233.238281 94.503906 C 232.984375 94.714844 232.726562 94.933594 232.472656 95.152344 C 232.222656 95.378906 231.972656 95.609375 231.722656 95.84375 C 231.222656 96.308594 230.722656 96.789062 230.214844 97.289062 C 229.964844 97.535156 229.714844 97.789062 229.460938 98.046875 C 229.394531 98.113281 229.332031 98.175781 229.269531 98.242188 C 229.210938 98.304688 229.148438 98.375 229.085938 98.4375 C 228.96875 98.574219 228.84375 98.707031 228.722656 98.839844 C 228.234375 99.378906 227.746094 99.933594 227.257812 100.503906 C 226.265625 101.636719 225.351562 102.871094 224.429688 104.15625 C 224.199219 104.480469 223.972656 104.804688 223.746094 105.136719 C 223.632812 105.304688 223.515625 105.464844 223.40625 105.636719 C 223.296875 105.804688 223.191406 105.976562 223.082031 106.148438 C 222.648438 106.832031 222.222656 107.535156 221.800781 108.253906 C 221.59375 108.609375 221.386719 108.976562 221.175781 109.34375 C 221.074219 109.527344 220.96875 109.707031 220.871094 109.894531 C 220.773438 110.085938 220.679688 110.273438 220.582031 110.464844 C 220.191406 111.222656 219.8125 111.996094 219.441406 112.792969 C 219.257812 113.1875 219.074219 113.582031 218.894531 113.988281 C 218.804688 114.191406 218.714844 114.390625 218.628906 114.597656 C 218.546875 114.804688 218.464844 115.011719 218.378906 115.21875 C 218.046875 116.050781 217.726562 116.898438 217.414062 117.761719 C 217.414062 117.761719 217.289062 117.464844 217.242188 116.710938 C 217.21875 116.335938 217.21875 115.84375 217.265625 115.21875 C 217.289062 114.90625 217.324219 114.5625 217.378906 114.179688 C 217.402344 113.988281 217.433594 113.789062 217.464844 113.578125 C 217.484375 113.472656 217.503906 113.367188 217.523438 113.253906 C 217.542969 113.144531 217.566406 113.035156 217.589844 112.921875 C 217.785156 112.015625 218.0625 110.953125 218.457031 109.710938 C 218.652344 109.089844 218.878906 108.421875 219.144531 107.710938 C 219.417969 107.003906 219.734375 106.253906 220.085938 105.449219 C 220.441406 104.644531 220.835938 103.789062 221.277344 102.882812 C 221.742188 101.984375 222.253906 101.035156 222.824219 100.027344 C 223.105469 99.523438 223.402344 99.007812 223.714844 98.476562 C 224.039062 97.949219 224.382812 97.410156 224.738281 96.859375 C 225.09375 96.304688 225.46875 95.734375 225.859375 95.152344 C 226.054688 94.863281 226.253906 94.5625 226.460938 94.265625 C 226.671875 93.972656 226.886719 93.671875 227.109375 93.367188 L 226.285156 93.769531 C 226.144531 93.835938 226.015625 93.90625 225.878906 93.976562 L 225.480469 94.183594 L 223.878906 95.023438 L 222.277344 95.878906 C 222.007812 96.023438 221.75 96.171875 221.492188 96.320312 L 220.714844 96.765625 L 219.164062 97.667969 L 218.386719 98.121094 L 218 98.351562 C 217.871094 98.429688 217.742188 98.503906 217.617188 98.582031 C 216.613281 99.210938 215.613281 99.84375 214.613281 100.484375 L 213.867188 100.96875 L 213.492188 101.210938 L 213.128906 101.457031 L 211.679688 102.453125 L 210.234375 103.457031 C 209.753906 103.796875 209.261719 104.132812 208.804688 104.480469 C 207.871094 105.171875 206.941406 105.867188 206.015625 106.574219 L 205.320312 107.101562 L 204.976562 107.367188 L 204.640625 107.636719 L 203.300781 108.71875 C 196.140625 114.515625 189.730469 120.835938 183.988281 127.417969 C 183.867188 127.550781 183.753906 127.6875 183.640625 127.824219 L 183.300781 128.238281 C 183.074219 128.511719 182.851562 128.789062 182.632812 129.070312 C 182.191406 129.628906 181.761719 130.195312 181.347656 130.769531 C 180.933594 131.34375 180.53125 131.925781 180.140625 132.515625 C 180.039062 132.660156 179.949219 132.808594 179.855469 132.957031 L 179.582031 133.40625 C 179.402344 133.703125 179.222656 134.003906 179.046875 134.304688 C 178.347656 135.511719 177.703125 136.738281 177.109375 137.984375 L 176.886719 138.453125 C 176.816406 138.609375 176.75 138.765625 176.683594 138.925781 C 176.546875 139.238281 176.417969 139.554688 176.289062 139.871094 C 176.035156 140.507812 175.792969 141.144531 175.566406 141.785156 C 175.339844 142.425781 175.125 143.066406 174.925781 143.714844 C 174.828125 144.035156 174.734375 144.359375 174.640625 144.683594 C 174.59375 144.84375 174.546875 145.007812 174.503906 145.171875 L 174.386719 145.660156 C 174.070312 146.964844 173.816406 148.277344 173.617188 149.589844 C 173.519531 150.246094 173.433594 150.90625 173.367188 151.5625 C 173.332031 151.890625 173.300781 152.21875 173.277344 152.546875 C 173.25 152.875 173.234375 153.207031 173.222656 153.539062 C 173.167969 154.855469 173.175781 156.171875 173.242188 157.480469 C 173.285156 158.277344 173.335938 159.058594 173.398438 159.820312 C 173.429688 160.199219 173.460938 160.574219 173.5 160.945312 C 173.507812 161.039062 173.519531 161.128906 173.527344 161.222656 C 173.539062 161.3125 173.550781 161.40625 173.5625 161.496094 C 173.585938 161.679688 173.609375 161.863281 173.632812 162.039062 C 173.824219 163.484375 174.0625 164.828125 174.347656 166.042969 C 174.921875 168.46875 175.695312 170.371094 176.695312 171.472656 C 176.695312 171.472656 176.410156 171.347656 175.882812 170.886719 C 175.359375 170.421875 174.597656 169.621094 173.65625 168.246094 C 172.714844 166.871094 171.589844 164.929688 170.359375 162.171875 C 170.050781 161.480469 169.734375 160.738281 169.417969 159.941406 C 169.097656 159.144531 168.765625 158.289062 168.457031 157.378906 C 167.824219 155.554688 167.179688 153.488281 166.546875 151.140625 C 160.054688 161.582031 154.757812 172.167969 150.40625 182.53125 C 146.054688 192.898438 142.652344 203.050781 139.929688 212.714844 C 139.699219 213.527344 139.492188 214.34375 139.304688 215.164062 C 139.117188 215.984375 138.941406 216.804688 138.816406 217.632812 C 138.550781 219.289062 138.371094 220.949219 138.277344 222.609375 C 138.230469 223.441406 138.203125 224.273438 138.199219 225.101562 C 138.199219 225.515625 138.203125 225.929688 138.210938 226.347656 C 138.214844 226.550781 138.21875 226.761719 138.226562 226.96875 L 138.261719 227.589844 C 138.363281 229.246094 138.550781 230.898438 138.824219 232.535156 C 139.042969 233.816406 139.277344 235.066406 139.535156 236.25 C 139.664062 236.84375 139.796875 237.417969 139.933594 237.972656 C 140.078125 238.53125 140.230469 239.070312 140.382812 239.585938 C 141.003906 241.636719 141.703125 243.3125 142.484375 244.371094 C 142.484375 244.371094 141.628906 243.371094 140.253906 241.480469 C 139.566406 240.535156 138.75 239.367188 137.847656 237.984375 C 137.621094 237.640625 137.386719 237.28125 137.152344 236.910156 C 136.917969 236.539062 136.683594 236.15625 136.441406 235.757812 C 135.960938 234.964844 135.460938 234.117188 134.953125 233.222656 C 134.410156 235.75 133.96875 238.222656 133.535156 240.640625 C 133.316406 241.847656 133.109375 243.039062 132.90625 244.21875 C 132.808594 244.804688 132.707031 245.390625 132.609375 245.96875 C 132.523438 246.554688 132.433594 247.128906 132.34375 247.703125 C 132 250 131.679688 252.226562 131.382812 254.386719 C 131.308594 254.929688 131.234375 255.464844 131.164062 255.996094 C 131.144531 256.128906 131.128906 256.257812 131.109375 256.394531 C 131.09375 256.523438 131.078125 256.65625 131.0625 256.789062 C 131.03125 257.050781 131 257.316406 130.96875 257.578125 C 130.847656 258.625 130.726562 259.65625 130.617188 260.664062 C 130.390625 262.683594 130.183594 264.628906 130 266.5 C 129.976562 266.730469 129.953125 266.964844 129.929688 267.195312 C 129.910156 267.425781 129.890625 267.65625 129.871094 267.886719 C 129.832031 268.34375 129.796875 268.796875 129.757812 269.242188 C 129.6875 270.140625 129.617188 271.015625 129.554688 271.871094 C 129.421875 273.582031 129.308594 275.207031 129.210938 276.746094 C 129.183594 277.132812 129.160156 277.511719 129.136719 277.886719 C 129.113281 278.257812 129.089844 278.628906 129.074219 278.988281 C 129.042969 279.71875 129.011719 280.421875 128.980469 281.105469 C 128.976562 281.222656 128.953125 281.335938 128.917969 281.445312 L 127.277344 286.394531 L 126.457031 288.867188 L 126.25 289.488281 L 126.054688 290.105469 L 125.660156 291.347656 L 124.085938 296.304688 L 123.296875 298.785156 L 122.902344 300.027344 L 122.707031 300.648438 L 122.519531 301.269531 L 120.828125 306.820312 L 120.925781 306.851562 C 120.707031 307.5625 120.484375 308.277344 120.265625 308.992188 C 119.542969 311.351562 118.851562 313.691406 118.195312 316 C 118.03125 316.574219 117.871094 317.152344 117.707031 317.722656 C 117.554688 318.296875 117.402344 318.871094 117.25 319.441406 C 116.945312 320.578125 116.652344 321.714844 116.367188 322.835938 C 116.136719 323.746094 115.910156 324.648438 115.6875 325.542969 L 109.335938 347.609375 C 109.195312 348.101562 109.925781 348.402344 110.265625 347.992188 C 114.144531 343.332031 122.222656 337.46875 124.5 335.855469 C 124.769531 335.664062 124.710938 335.296875 124.394531 335.171875 C 122.273438 334.34375 120.601562 332.953125 119.316406 331.476562 C 121.644531 323.617188 123.964844 316.042969 126.269531 308.753906 L 126.328125 308.773438 L 127.9375 303.613281 C 128.335938 302.3125 128.769531 301.019531 129.1875 299.722656 L 130.453125 295.835938 L 131.722656 291.949219 C 131.929688 291.300781 132.152344 290.65625 132.371094 290.011719 L 133.03125 288.074219 L 134.347656 284.199219 L 135.003906 282.261719 L 135.335938 281.292969 L 135.5 280.808594 L 135.671875 280.328125 L 138.410156 272.605469 L 139.09375 270.675781 L 139.804688 268.75 L 142.648438 261.054688 C 142.765625 260.738281 142.890625 260.417969 143.011719 260.097656 L 143.382812 259.140625 L 144.121094 257.222656 L 145.601562 253.390625 L 146.339844 251.476562 C 146.589844 250.839844 146.851562 250.203125 147.105469 249.570312 L 150.179688 241.9375 L 153.371094 234.339844 C 157.699219 224.238281 162.300781 214.21875 167.269531 204.324219 C 168.484375 201.84375 169.792969 199.394531 171.066406 196.933594 L 172.027344 195.085938 L 172.148438 194.859375 L 172.273438 194.628906 L 172.519531 194.171875 L 173.019531 193.253906 L 175.011719 189.59375 L 175.511719 188.679688 C 175.675781 188.371094 175.839844 188.066406 176.015625 187.765625 L 177.046875 185.949219 L 179.113281 182.316406 L 179.371094 181.863281 L 179.636719 181.410156 L 180.171875 180.507812 L 181.242188 178.710938 L 182.3125 176.910156 L 182.847656 176.007812 L 183.117188 175.558594 C 183.207031 175.410156 183.300781 175.261719 183.394531 175.109375 L 185.613281 171.542969 L 186.722656 169.761719 C 187.101562 169.167969 187.488281 168.582031 187.871094 167.992188 L 190.171875 164.460938 L 190.460938 164.015625 L 190.757812 163.582031 L 191.355469 162.707031 L 193.738281 159.214844 L 194.035156 158.777344 C 194.136719 158.632812 194.242188 158.488281 194.34375 158.34375 L 194.960938 157.480469 L 197.429688 154.03125 C 197.535156 153.886719 197.636719 153.738281 197.738281 153.597656 L 198.699219 152.320312 L 199.976562 150.613281 L 201.257812 148.910156 L 202.578125 147.230469 L 203.902344 145.546875 L 204.566406 144.710938 C 204.675781 144.570312 204.785156 144.429688 204.898438 144.289062 L 205.238281 143.878906 L 207.980469 140.566406 L 208.320312 140.152344 C 208.4375 140.015625 208.554688 139.878906 208.671875 139.742188 L 209.382812 138.929688 L 210.796875 137.304688 L 211.507812 136.488281 L 211.859375 136.082031 C 211.980469 135.949219 212.105469 135.816406 212.226562 135.679688 L 213.691406 134.082031 C 217.597656 129.820312 221.71875 125.6875 226.109375 121.753906 L 225.820312 122.011719 C 225.722656 122.101562 225.628906 122.191406 225.535156 122.28125 L 224.976562 122.820312 L 223.855469 123.894531 L 222.734375 124.976562 L 222.457031 125.242188 L 222.316406 125.378906 L 222.179688 125.515625 L 221.640625 126.070312 L 219.472656 128.273438 L 218.933594 128.824219 L 217.363281 130.511719 L 216.316406 131.632812 L 215.792969 132.195312 C 215.707031 132.289062 215.617188 132.382812 215.535156 132.480469 L 215.28125 132.765625 L 213.257812 135.054688 L 212.25 136.203125 C 211.914062 136.585938 211.59375 136.976562 211.269531 137.363281 L 209.316406 139.691406 C 204.164062 145.933594 199.417969 152.394531 194.988281 158.996094 C 190.554688 165.59375 186.4375 172.332031 182.546875 179.15625 L 181.09375 181.71875 L 180.726562 182.359375 L 180.378906 183.003906 L 179.675781 184.292969 L 178.273438 186.871094 L 177.570312 188.164062 L 177.21875 188.808594 L 176.882812 189.460938 L 174.179688 194.660156 L 173.84375 195.308594 L 173.671875 195.632812 L 173.511719 195.960938 L 172.859375 197.269531 L 171.558594 199.886719 L 170.261719 202.503906 C 170.152344 202.722656 170.046875 202.941406 169.945312 203.160156 L 169.628906 203.820312 L 169.003906 205.136719 C 168.171875 206.894531 167.332031 208.648438 166.507812 210.40625 L 164.101562 215.707031 L 163.5 217.035156 C 163.300781 217.476562 163.09375 217.914062 162.90625 218.359375 L 160.59375 223.6875 L 159.726562 225.6875 L 159.578125 226.019531 L 159.441406 226.351562 L 157.214844 231.710938 L 156.105469 234.386719 L 155.035156 237.074219 L 152.898438 242.457031 L 152.628906 243.128906 C 152.542969 243.351562 152.457031 243.578125 152.371094 243.804688 L 151.859375 245.152344 L 149.804688 250.558594 C 149.464844 251.457031 149.113281 252.355469 148.792969 253.261719 L 146.820312 258.6875 L 145.832031 261.398438 C 145.667969 261.851562 145.511719 262.304688 145.355469 262.757812 L 144.878906 264.117188 L 142.988281 269.5625 L 142.511719 270.925781 L 142.277344 271.605469 L 142.046875 272.289062 L 141.140625 275.019531 L 139.320312 280.484375 L 138.867188 281.847656 L 138.429688 283.21875 L 137.558594 285.957031 C 137.1875 287.125 138.574219 288.101562 139.589844 287.394531 C 141.144531 286.3125 142.671875 285.230469 144.175781 284.152344 C 144.933594 283.617188 145.691406 283.082031 146.441406 282.550781 C 147.1875 282.015625 147.929688 281.484375 148.667969 280.957031 C 150.144531 279.898438 151.59375 278.839844 153.019531 277.789062 C 153.730469 277.265625 154.4375 276.738281 155.140625 276.21875 C 155.851562 275.695312 156.554688 275.179688 157.253906 274.664062 C 158.652344 273.628906 160.023438 272.597656 161.375 271.570312 C 162.046875 271.054688 162.714844 270.542969 163.382812 270.035156 C 164.046875 269.527344 164.695312 269.011719 165.359375 268.507812 C 168.003906 266.488281 170.554688 264.484375 173.011719 262.496094 C 182.925781 254.574219 191.636719 247.015625 199.3125 239.773438 C 196.910156 240.121094 194.71875 240.398438 192.722656 240.617188 C 190.738281 240.84375 188.953125 241.011719 187.347656 241.125 C 184.136719 241.351562 181.648438 241.371094 179.761719 241.28125 C 177.875 241.191406 176.589844 241.003906 175.777344 240.832031 C 174.964844 240.660156 174.628906 240.507812 174.628906 240.507812 C 178.324219 241.5 182.460938 241.046875 186.585938 239.847656 C 187.101562 239.699219 187.617188 239.539062 188.132812 239.367188 C 188.390625 239.28125 188.648438 239.191406 188.902344 239.101562 C 189.164062 239.011719 189.421875 238.917969 189.679688 238.824219 C 190.714844 238.449219 191.742188 238.035156 192.757812 237.597656 C 194.785156 236.71875 196.757812 235.734375 198.617188 234.722656 C 199.089844 234.46875 199.550781 234.214844 200.007812 233.96875 C 200.464844 233.71875 200.917969 233.464844 201.359375 233.214844 C 202.238281 232.710938 203.089844 232.210938 203.898438 231.71875 C 204.707031 231.226562 205.472656 230.746094 206.195312 230.289062 C 206.914062 229.824219 207.59375 229.390625 208.226562 228.988281 C 210.746094 227.363281 212.402344 226.179688 212.773438 225.980469 C 212.816406 225.960938 212.867188 225.96875 212.902344 226.003906 C 212.949219 226.042969 213.015625 226.042969 213.054688 226.003906 C 219.578125 219.035156 225.140625 212.378906 229.917969 205.980469 C 234.695312 199.578125 238.691406 193.433594 242.089844 187.496094 C 242.300781 187.125 242.507812 186.746094 242.714844 186.375 C 242.925781 186.011719 243.132812 185.644531 243.335938 185.28125 C 243.746094 184.550781 244.144531 183.816406 244.53125 183.078125 C 244.628906 182.898438 244.722656 182.710938 244.816406 182.527344 L 244.960938 182.25 L 245.105469 181.980469 C 245.296875 181.625 245.488281 181.265625 245.675781 180.90625 C 246.050781 180.183594 246.414062 179.464844 246.769531 178.738281 C 246.855469 178.554688 246.945312 178.371094 247.03125 178.191406 C 247.121094 178.015625 247.207031 177.839844 247.300781 177.660156 C 247.476562 177.308594 247.648438 176.953125 247.820312 176.597656 C 248.164062 175.890625 248.496094 175.175781 248.820312 174.457031 C 248.898438 174.277344 248.980469 174.105469 249.0625 173.929688 C 249.144531 173.757812 249.226562 173.582031 249.308594 173.410156 C 249.472656 173.0625 249.628906 172.710938 249.789062 172.359375 C 249.945312 172.007812 250.097656 171.65625 250.253906 171.304688 C 250.328125 171.128906 250.40625 170.949219 250.480469 170.773438 C 250.554688 170.597656 250.628906 170.417969 250.707031 170.246094 C 253.125 164.683594 255.152344 159.269531 257.015625 153.964844 C 256.222656 154.042969 255.449219 154.121094 254.695312 154.191406 C 253.929688 154.292969 253.1875 154.386719 252.457031 154.480469 C 252.085938 154.527344 251.722656 154.574219 251.359375 154.617188 C 251.179688 154.644531 251 154.664062 250.820312 154.6875 C 250.730469 154.699219 250.640625 154.710938 250.550781 154.71875 C 250.460938 154.730469 250.375 154.746094 250.285156 154.761719 C 249.574219 154.867188 248.878906 154.972656 248.203125 155.074219 C 247.511719 155.179688 246.84375 155.277344 246.191406 155.375 C 246.105469 155.386719 246.023438 155.398438 245.945312 155.410156 C 245.863281 155.425781 245.78125 155.441406 245.699219 155.453125 C 245.539062 155.480469 245.378906 155.507812 245.21875 155.535156 C 244.898438 155.589844 244.582031 155.644531 244.269531 155.699219 C 243.640625 155.800781 243.023438 155.90625 242.425781 156.003906 C 242.125 156.054688 241.828125 156.101562 241.535156 156.148438 C 241.386719 156.171875 241.242188 156.195312 241.097656 156.21875 C 240.949219 156.246094 240.808594 156.273438 240.667969 156.296875 C 239.527344 156.503906 238.441406 156.695312 237.40625 156.871094 C 236.882812 156.957031 236.378906 157.042969 235.890625 157.125 C 235.640625 157.160156 235.40625 157.210938 235.167969 157.25 C 234.929688 157.292969 234.695312 157.332031 234.46875 157.375 C 233.546875 157.539062 232.679688 157.683594 231.859375 157.8125 C 231.449219 157.875 231.054688 157.933594 230.667969 157.996094 C 230.476562 158.023438 230.289062 158.050781 230.101562 158.078125 C 229.917969 158.101562 229.734375 158.128906 229.558594 158.15625 C 226.722656 158.601562 224.691406 158.796875 223.378906 158.863281 C 223.214844 158.875 223.0625 158.878906 222.917969 158.886719 C 222.777344 158.894531 222.648438 158.898438 222.527344 158.902344 C 222.289062 158.910156 222.097656 158.914062 221.941406 158.914062 C 221.628906 158.914062 221.484375 158.902344 221.484375 158.902344 C 221.742188 158.871094 222.003906 158.832031 222.269531 158.785156 C 222.402344 158.765625 222.535156 158.738281 222.671875 158.714844 C 222.808594 158.6875 222.941406 158.664062 223.082031 158.636719 C 223.632812 158.53125 224.195312 158.402344 224.769531 158.253906 C 225.921875 157.953125 227.109375 157.570312 228.328125 157.117188 C 228.476562 157.058594 228.632812 157.007812 228.789062 156.953125 C 228.945312 156.894531 229.101562 156.839844 229.257812 156.785156 C 229.570312 156.667969 229.882812 156.546875 230.199219 156.425781 C 230.828125 156.183594 231.464844 155.921875 232.105469 155.648438 C 233.375 155.09375 234.703125 154.542969 236.015625 153.9375 C 236.34375 153.789062 236.671875 153.632812 237 153.480469 C 237.164062 153.402344 237.328125 153.324219 237.492188 153.246094 L 237.738281 153.128906 L 237.988281 153.015625 C 238.65625 152.714844 239.320312 152.410156 239.984375 152.09375 C 240.3125 151.9375 240.644531 151.777344 240.972656 151.621094 L 241.46875 151.382812 L 241.710938 151.261719 C 241.796875 151.21875 241.878906 151.183594 241.964844 151.148438 C 242.625 150.84375 243.285156 150.53125 243.9375 150.222656 C 244.265625 150.066406 244.589844 149.90625 244.914062 149.75 C 245.074219 149.671875 245.234375 149.59375 245.394531 149.515625 C 245.558594 149.4375 245.71875 149.367188 245.882812 149.292969 C 246.53125 148.996094 247.171875 148.699219 247.800781 148.402344 C 248.113281 148.253906 248.429688 148.105469 248.738281 147.957031 L 248.96875 147.84375 L 249.203125 147.738281 C 249.359375 147.671875 249.515625 147.601562 249.667969 147.535156 C 250.285156 147.257812 250.894531 146.980469 251.484375 146.710938 C 252.269531 146.332031 253.039062 145.972656 253.765625 145.546875 C 254.128906 145.335938 254.484375 145.117188 254.828125 144.882812 L 255.085938 144.707031 L 255.34375 144.539062 C 255.511719 144.425781 255.683594 144.308594 255.847656 144.191406 C 256.179688 143.949219 256.503906 143.703125 256.820312 143.445312 C 256.976562 143.3125 257.132812 143.179688 257.285156 143.046875 L 257.515625 142.84375 L 257.746094 142.644531 C 258.347656 142.117188 258.917969 141.539062 259.453125 140.925781 C 261.613281 138.527344 263.289062 135.644531 264.550781 132.265625 C 264.804688 131.59375 265.050781 130.929688 265.300781 130.269531 C 265.558594 129.613281 265.816406 128.964844 266.070312 128.316406 C 266.199219 127.988281 266.328125 127.660156 266.457031 127.335938 C 266.589844 127.015625 266.722656 126.695312 266.855469 126.378906 C 267.121094 125.738281 267.386719 125.089844 267.65625 124.453125 C 267.9375 123.820312 268.210938 123.195312 268.488281 122.570312 C 268.554688 122.414062 268.625 122.257812 268.695312 122.101562 C 268.765625 121.941406 268.835938 121.785156 268.90625 121.632812 C 269.050781 121.324219 269.195312 121.019531 269.335938 120.710938 C 269.480469 120.402344 269.625 120.097656 269.769531 119.792969 C 269.839844 119.640625 269.914062 119.484375 269.984375 119.332031 L 270.09375 119.101562 L 270.207031 118.878906 C 270.507812 118.273438 270.804688 117.675781 271.101562 117.085938 C 271.398438 116.480469 271.710938 115.910156 272.019531 115.328125 C 272.175781 115.035156 272.332031 114.746094 272.484375 114.457031 C 272.5625 114.3125 272.640625 114.167969 272.722656 114.023438 C 272.796875 113.878906 272.878906 113.742188 272.960938 113.601562 C 273.277344 113.039062 273.597656 112.480469 273.921875 111.921875 C 274 111.78125 274.085938 111.640625 274.164062 111.503906 C 274.246094 111.367188 274.328125 111.234375 274.410156 111.097656 C 274.574219 110.824219 274.742188 110.554688 274.90625 110.285156 C 275.074219 110.015625 275.238281 109.75 275.402344 109.484375 C 275.484375 109.347656 275.570312 109.210938 275.652344 109.085938 C 275.738281 108.953125 275.824219 108.824219 275.90625 108.691406 C 276.246094 108.175781 276.585938 107.660156 276.925781 107.152344 C 277.09375 106.890625 277.269531 106.648438 277.441406 106.398438 C 277.617188 106.152344 277.789062 105.90625 277.960938 105.664062 C 278.136719 105.417969 278.308594 105.175781 278.480469 104.933594 C 278.65625 104.691406 278.832031 104.460938 279.007812 104.226562 C 279.355469 103.757812 279.710938 103.296875 280.0625 102.839844 C 280.414062 102.390625 280.773438 101.953125 281.125 101.519531 C 281.304688 101.304688 281.480469 101.089844 281.65625 100.875 C 281.835938 100.667969 282.011719 100.460938 282.191406 100.257812 C 282.546875 99.847656 282.902344 99.445312 283.253906 99.050781 C 283.96875 98.285156 284.664062 97.53125 285.367188 96.84375 C 285.542969 96.671875 285.714844 96.503906 285.890625 96.332031 C 286.0625 96.164062 286.230469 95.996094 286.40625 95.835938 C 286.753906 95.515625 287.097656 95.203125 287.433594 94.898438 C 290.066406 92.492188 292.238281 90.804688 293.550781 89.8125 C 293.925781 89.527344 294.058594 89.140625 293.96875 88.75 " fill-opacity="1" fill-rule="nonzero"/></svg>